<svg xmlns="http://www.w3.org/2000/svg" xmlns:xlink="http://www.w3.org/1999/xlink" width="400" height="400" viewBox="0 0 400 400">
	<style>
	    path {
	        fill: #050505;
	    }
	    @media (prefers-color-scheme: dark) {
	        path {
	            fill: #fff;
	        }
	    }
	</style>

  <defs>
    <clipPath id="clip-アートボード_2">
      <rect width="400" height="400"/>
    </clipPath>
  </defs>
  <g id="アートボード_2" data-name="アートボード – 2" clip-path="url(#clip-アートボード_2)">
    <path id="合体_1" data-name="合体 1" d="M-1775.59-2103.577l-29.307-69.491a11.528,11.528,0,0,1-5.443,3.6,45.585,45.585,0,0,1-15.576,2.478q-12.742,0-21.594-3.775a37.868,37.868,0,0,1-15.222-12.037q-9.677-12.035-16.756-22.184t-16.992-26.9a21.231,21.231,0,0,0-8.732-8.732,49.493,49.493,0,0,0-14.868-4.012q-3.3,0-3.3,4.719v42.717q0,7.788,3.893,12.508t12.862,6.371a15.676,15.676,0,0,1,5.192,1.771,3.145,3.145,0,0,1,1.652,2.714q0,2.832-6.136,2.831-2.36,0-15.812-.707a100.8,100.8,0,0,0-12.036-.708q-8.024,0-15.576.708-2.36,0-7.316.354t-9.2.354q-6.137,0-6.136-2.831a3.146,3.146,0,0,1,1.652-2.714,15.693,15.693,0,0,1,5.192-1.771q9.2-1.651,12.981-5.309t3.776-11.683v-102.424a58.024,58.024,0,0,0-.944-12.39,8.751,8.751,0,0,0-3.776-5.664q-2.832-1.77-9.44-2.714a9.434,9.434,0,0,1-5.31-1.652,3.975,3.975,0,0,1-1.77-3.068q0-1.416,1.77-2.242a10.292,10.292,0,0,1,4.366-.826q7.552,0,15.1.473l11.328.236q4.012,0,11.092-.473a171.267,171.267,0,0,1,17.936-.943q26.668,0,40.592,9.676t13.924,28.792q0,14.4-8.259,23.718a59.287,59.287,0,0,1-20.3,14.75,1.09,1.09,0,0,0-.708,1.18l.472,1.888q14.16,21.476,23.482,33.63a186.719,186.719,0,0,0,22.539,24.189q6.136,5.665,12.508,7.08a77.2,77.2,0,0,0,15.682,1.412l-22.213-52.67a33.146,33.146,0,0,0-6.811-10.039,22.774,22.774,0,0,0-9.918-5.5,34.869,34.869,0,0,1-5.855-2.51,3.16,3.16,0,0,1-1.793-2.749q0-2.867,6.692-2.867l12.19.239q8.6.478,12.906.478,5.018,0,14.1-.478l10.516-.239q6.931,0,6.931,2.867a3.1,3.1,0,0,1-1.673,2.868,29.151,29.151,0,0,1-5.975,2.151q-3.106.717-4.063,2.509a11.133,11.133,0,0,0-.956,5.139,25.307,25.307,0,0,0,.6,5.377,18.4,18.4,0,0,0,1.076,3.7q16.014,40.391,38.479,91.776,1.434,2.63,2.151,2.629.956,0,1.673-2.39l16.73-38.479a14.508,14.508,0,0,0,1.434-5.258,23.106,23.106,0,0,0-1.673-5.975l-17.447-40.63a27.362,27.362,0,0,0-8.6-11.472,35.743,35.743,0,0,0-12.906-6.692,31.284,31.284,0,0,1-5.5-2.51,3.183,3.183,0,0,1-1.673-2.749q0-2.867,6.214-2.867l12.906.239q9.083.478,13.623.478,4.063,0,12.189-.478l9.8-.239a16.553,16.553,0,0,1,5.378.716q2.032.717,2.031,2.151a2.74,2.74,0,0,1-1.194,2.151,24.828,24.828,0,0,1-3.346,2.151q-.478.239-2.391,1.435a6.415,6.415,0,0,0-2.629,2.867,2.457,2.457,0,0,0-1.673,2.39,7.821,7.821,0,0,0,.478,1.912q8.127,21.511,10.994,27.963,1.434,2.869,2.151,2.868t2.151-2.868q3.106-6.931,7.648-20.315l2.389-6.692.478-2.868a4.688,4.688,0,0,0-1.314-3.466,16.463,16.463,0,0,0-4.182-2.749q-.478-.239-1.793-1.074a6.838,6.838,0,0,1-1.912-1.673,3.032,3.032,0,0,1-.6-1.793q0-2.869,6.453-2.868,4.062,0,7.169.239t5.737.239a53.48,53.48,0,0,0,6.453-.478q5.257-.478,8.843-.478a12.66,12.66,0,0,1,5.019.837q1.912.836,1.912,2.27a3.161,3.161,0,0,1-1.792,2.749,21.751,21.751,0,0,1-5.617,2.031q-6.931,1.674-9.919,4.3a38.54,38.54,0,0,0-6.572,8.365q-4.3,7.887-13.862,30.831a19.458,19.458,0,0,0-1.435,6.692,7.4,7.4,0,0,0,.717,3.346l22.227,55.926q.717,1.195,1.194,1.2.717,0,1.673-2.151,11.711-29.159,30.831-89.148a30.276,30.276,0,0,0,1.912-9.8q-.478-7.41-7.169-9.082-7.649-2.391-7.648-5.019,0-1.434,1.912-2.151a14.572,14.572,0,0,1,5.019-.717l9.8.239q2.39.239,7.169.239,2.63,0,8.365-.478,8.126-.478,12.189-.478,7.409,0,7.409,3.107a3.152,3.152,0,0,1-1.912,2.749,24.219,24.219,0,0,1-5.736,2.031,20.984,20.984,0,0,0-11.83,6.931,45.234,45.234,0,0,0-7.29,12.428l-46.844,126.91q-1.912,5.257-4.3,5.258-2.151,0-4.541-4.542-5.736-12.667-17.447-40.869l-11.233-27.485q-.717-1.434-1.2-1.434-.717,0-1.673,2.39-17.685,39.914-28.2,65.965-2.391,6.692-5.259,6.691Q-1773.2-2097.124-1775.59-2103.577ZM-1920.2-2314.256q-2.242,4.485-2.714,17.464-.471,15.1-.472,37.524,0,5.192,2.714,6.844t8.614,1.652q14.633,0,23.483-9.676t8.85-23.835q0-16.756-6.844-25.606t-24.78-8.851Q-1917.956-2318.74-1920.2-2314.256Z" transform="translate(2009.816 2426.948)" fill="#050505" stroke="rgba(0,0,0,0)" stroke-miterlimit="10" stroke-width="1"/>
  </g>
</svg>
